<svg width="50" height="32" viewBox="0 0 50 32" fill="none" xmlns="http://www.w3.org/2000/svg">
<path d="M22.088 8.35202C21.88 8.35202 21.72 8.25602 21.608 8.06402C21.48 7.87202 21.416 7.60802 21.416 7.27202C21.416 6.64802 21.568 6.15202 21.872 5.78402C22.64 4.85602 23.416 4.13602 24.2 3.62402C24.984 3.12802 25.912 2.88002 26.984 2.88002C28.168 2.88002 29.136 3.22402 29.888 3.91202C30.64 4.61602 31.344 5.70402 32 7.17602C32.48 8.23202 32.88 9.01602 33.2 9.52802C33.504 10.056 33.808 10.424 34.112 10.632C34.416 10.856 34.8 10.992 35.264 11.04L35.528 9.26402C35.864 6.97602 36.52 5.32802 37.496 4.32002C38.456 3.31202 39.784 2.80802 41.48 2.80802C42.584 2.80802 43.568 3.07202 44.432 3.60002C45.28 4.14402 45.872 4.83202 46.208 5.66402C46.32 5.95202 46.376 6.26402 46.376 6.60002C46.376 7.08002 46.264 7.49602 46.04 7.84802C45.816 8.20002 45.528 8.37602 45.176 8.37602C44.968 8.37602 44.792 8.32002 44.648 8.20802C44.504 8.11202 44.368 7.93602 44.24 7.68002C43.744 6.75202 43.312 6.10402 42.944 5.73602C42.56 5.36802 42.088 5.18402 41.528 5.18402C40.888 5.18402 40.344 5.47202 39.896 6.04802C39.432 6.64002 39.104 7.54402 38.912 8.76002L38.576 11.04H38.96C39.328 11.04 39.616 11.144 39.824 11.352C40.032 11.56 40.136 11.848 40.136 12.216C40.136 12.632 40.032 12.96 39.824 13.2C39.6 13.456 39.328 13.584 39.008 13.584H38.216C38.104 14.368 38.024 14.912 37.976 15.216L37.232 20.616C37.648 20.664 38.04 20.688 38.408 20.688C39.768 20.688 40.8 20.448 41.504 19.968C42.208 19.504 42.56 18.832 42.56 17.952C42.56 17.552 42.52 17.224 42.44 16.968C42.344 16.728 42.224 16.456 42.08 16.152C42.016 16.024 41.984 15.88 41.984 15.72C41.984 15.368 42.152 15.056 42.488 14.784C42.808 14.528 43.168 14.4 43.568 14.4C44.08 14.4 44.456 14.624 44.696 15.072C45.176 15.92 45.416 16.832 45.416 17.808C45.416 18.816 45.144 19.736 44.6 20.568C44.04 21.4 43.2 22.064 42.08 22.56C40.96 23.072 39.576 23.328 37.928 23.328C37.208 23.328 36.552 23.288 35.96 23.208C35.352 23.128 34.688 22.976 33.968 22.752C33.184 22.512 32.792 22.064 32.792 21.408C32.792 20.528 33.168 20.088 33.92 20.088L34.856 13.632C32.984 13.824 31.464 14.624 30.296 16.032C29.112 17.456 28.128 19.384 27.344 21.816C27.2 22.264 26.96 22.608 26.624 22.848C26.272 23.088 25.832 23.208 25.304 23.208C24.856 23.208 24.512 23.104 24.272 22.896C24.016 22.704 23.888 22.424 23.888 22.056C23.888 21.944 23.92 21.76 23.984 21.504C24.784 18.864 25.928 16.768 27.416 15.216C28.904 13.664 30.528 12.632 32.288 12.12C31.68 11.976 31.184 11.76 30.8 11.472C30.4 11.184 30.064 10.824 29.792 10.392C29.52 9.97602 29.208 9.39202 28.856 8.64002C28.36 7.58402 27.896 6.83202 27.464 6.38402C27.032 5.95202 26.528 5.73602 25.952 5.73602C25.44 5.73602 24.952 5.90402 24.488 6.24002C24.024 6.59202 23.44 7.18402 22.736 8.01602C22.544 8.24002 22.328 8.35202 22.088 8.35202Z" fill="#08E0EE"/>
<path d="M27.912 23.648C28.12 23.648 28.28 23.744 28.392 23.936C28.52 24.128 28.584 24.392 28.584 24.728C28.584 25.352 28.432 25.848 28.128 26.216C27.36 27.144 26.584 27.864 25.8 28.376C25.016 28.872 24.088 29.12 23.016 29.12C21.832 29.12 20.864 28.776 20.112 28.088C19.36 27.384 18.656 26.296 18 24.824C17.52 23.768 17.12 22.984 16.8 22.472C16.496 21.944 16.192 21.576 15.888 21.368C15.584 21.144 15.2 21.008 14.736 20.96L14.472 22.736C14.136 25.024 13.48 26.672 12.504 27.68C11.544 28.688 10.216 29.192 8.52 29.192C7.416 29.192 6.432 28.928 5.568 28.4C4.72 27.856 4.128 27.168 3.792 26.336C3.68 26.048 3.624 25.736 3.624 25.4C3.624 24.92 3.736 24.504 3.96 24.152C4.184 23.8 4.472 23.624 4.824 23.624C5.032 23.624 5.208 23.68 5.352 23.792C5.496 23.888 5.632 24.064 5.76 24.32C6.256 25.248 6.688 25.896 7.056 26.264C7.44 26.632 7.912 26.816 8.472 26.816C9.112 26.816 9.656 26.528 10.104 25.952C10.568 25.36 10.896 24.456 11.088 23.24L11.424 20.96H11.04C10.672 20.96 10.384 20.856 10.176 20.648C9.968 20.44 9.864 20.152 9.864 19.784C9.864 19.368 9.968 19.04 10.176 18.8C10.4 18.544 10.672 18.416 10.992 18.416H11.784C11.896 17.632 11.976 17.088 12.024 16.784L12.768 11.384C12.352 11.336 11.96 11.312 11.592 11.312C10.232 11.312 9.2 11.552 8.496 12.032C7.792 12.496 7.44 13.168 7.44 14.048C7.44 14.448 7.48 14.776 7.56 15.032C7.656 15.272 7.776 15.544 7.92 15.848C7.984 15.976 8.016 16.12 8.016 16.28C8.016 16.632 7.848 16.944 7.512 17.216C7.192 17.472 6.832 17.6 6.432 17.6C5.92 17.6 5.544 17.376 5.304 16.928C4.824 16.08 4.584 15.168 4.584 14.192C4.584 13.184 4.856 12.264 5.4 11.432C5.96 10.6 6.8 9.93601 7.92 9.44001C9.04 8.92801 10.424 8.67201 12.072 8.67201C12.792 8.67201 13.448 8.71201 14.04 8.79201C14.648 8.87201 15.312 9.02401 16.032 9.24801C16.816 9.48801 17.208 9.93601 17.208 10.592C17.208 11.472 16.832 11.912 16.08 11.912L15.144 18.368C17.016 18.176 18.536 17.376 19.704 15.968C20.888 14.544 21.872 12.616 22.656 10.184C22.8 9.73601 23.04 9.39201 23.376 9.15201C23.728 8.91201 24.168 8.79201 24.696 8.79201C25.144 8.79201 25.488 8.89601 25.728 9.10401C25.984 9.29601 26.112 9.57601 26.112 9.94401C26.112 10.056 26.08 10.24 26.016 10.496C25.216 13.136 24.072 15.232 22.584 16.784C21.096 18.336 19.472 19.368 17.712 19.88C18.32 20.024 18.816 20.24 19.2 20.528C19.6 20.816 19.936 21.176 20.208 21.608C20.48 22.024 20.792 22.608 21.144 23.36C21.64 24.416 22.104 25.168 22.536 25.616C22.968 26.048 23.472 26.264 24.048 26.264C24.56 26.264 25.048 26.096 25.512 25.76C25.976 25.408 26.56 24.816 27.264 23.984C27.456 23.76 27.672 23.648 27.912 23.648Z" fill="#08E0EE"/>
</svg>
